# xmcd
#
# Track frame offsets:
#	151
#	19231
#	51636
#	69825
#	90894
#	112643
#	135282
#	164350
#	204032
#	243677
#	267478
#
# Disc length: 4013 seconds
#
# Revision: 1
# Processed by: cddbd v1.5.1PL2 Copyright (c) Steve Scherf et al.
# Submitted via: CDmax 2.0
#
DISCID=880fab0b
DTITLE=Eric Clapton - Final Reptile (disc1)
DYEAR=2001
DGENRE=Blues
TTITLE0=Key to the Highway
TTITLE1=Reptile
TTITLE2=Got You on My Mind
TTITLE3=Tears in Heaven
TTITLE4=Layla
TTITLE5=Bell Bottom Blues
TTITLE6=Change the World
TTITLE7=My Father's Eyes
TTITLE8=River of Tears
TTITLE9=Goin' Down Slow
TTITLE10=She's Gone
EXTD=Reptile Japan Tour 2001\nEric Clapton\t\tguitars, vocals\nAndy Fairweath
EXTD=er Low\tguitars, vocals\nNathan East\t\tbass, vocals\nSteve Gadd\t\tdrum
EXTD=s\nDavid Sancious\t\tkeyboards, vocals, guitar\nGreg Phillinganes\t\tkey
EXTD=boards\n\nRecorded live at Yokohama Arena, Kanagawa, Japan on December 1
EXTD=5th, 2001\n\nMaster from Sylph
EXTT0=
EXTT1=
EXTT2=
EXTT3=
EXTT4=
EXTT5=
EXTT6=
EXTT7=
EXTT8=
EXTT9=
EXTT10=
PLAYORDER=
